<svg width="14" height="14" viewBox="0 0 14 14" fill="none" xmlns="http://www.w3.org/2000/svg">
<path d="M9.92191 8.65462H9.34224L9.13679 8.45651C9.85587 7.62003 10.2888 6.53408 10.2888 5.35274C10.2888 2.71856 8.15356 0.583344 5.51939 0.583344C2.88522 0.583344 0.75 2.71856 0.75 5.35274C0.75 7.98691 2.88522 10.1221 5.51939 10.1221C6.70073 10.1221 7.78669 9.68921 8.62317 8.97014L8.82128 9.17559V9.75525L12.49 13.4167L13.5833 12.3234L9.92191 8.65462V8.65462ZM5.51939 8.65462C3.69235 8.65462 2.21751 7.17978 2.21751 5.35274C2.21751 3.52569 3.69235 2.05085 5.51939 2.05085C7.34644 2.05085 8.82128 3.52569 8.82128 5.35274C8.82128 7.17978 7.34644 8.65462 5.51939 8.65462Z" fill="black"/>
</svg>
